<svg xmlns="http://www.w3.org/2000/svg" viewBox="0 0 46.1 32.4" width="640" height="450"><title>Ubiquitin coloured by crystallographic B-factor, PDB 1UBQ</title><style>circle{stroke-width:.22}.flex{animation:wob 2.6s ease-in-out infinite}@keyframes wob{50%{transform:translate(.5px,-.6px)}}@media (prefers-reduced-motion:reduce){*{animation:none!important}}</style><circle cx="30.4" cy="11.2" r="1.8" fill="#87a6cc" stroke="#315484"/><circle cx="28.6" cy="7.6" r="1.8" fill="#a1b9d6" stroke="#506b90"/><circle cx="17.3" cy="27" r="1.8" fill="#9fb8d6" stroke="#526c91"/><circle cx="15.9" cy="26.8" r="1.8" fill="#98b2d3" stroke="#4d688f"/><circle cx="21.3" cy="24.9" r="1.8" fill="#dbdfdc" stroke="#8c9297"/><circle cx="18.4" cy="26.3" r="1.8" fill="#b6c8df" stroke="#6a7d9a"/><circle cx="6.1" cy="16.6" r="1.8" fill="#7d9fc9" stroke="#375886"/><circle cx="12.8" cy="24.2" r="1.8" fill="#84a4cc" stroke="#3e5d89"/><circle cx="33.1" cy="14.6" r="1.8" fill="#cdd9e8" stroke="#818ea3"/><circle cx="14.2" cy="29.8" r="1.8" fill="#dcddd2" stroke="#8f928f"/><circle cx="7.3" cy="22.8" r="1.8" fill="#a8beda" stroke="#5f7696"/><circle cx="11.5" cy="3.4" r="1.8" fill="#dcddd3" stroke="#8e9290"/><circle cx="20.2" cy="24.9" r="1.8" fill="#a0b8d6" stroke="#597093"/><circle cx="23.8" cy="2.3" r="1.8" fill="#dbddd3" stroke="#8e9290"/><circle cx="25.2" cy="2.4" r="1.8" fill="#d9dddd" stroke="#8c9299"/><circle cx="11.1" cy="5.7" r="1.8" fill="#c3d1e4" stroke="#7988a0"/><circle cx="6.9" cy="21.7" r="1.8" fill="#8aa9cf" stroke="#47648d"/><circle cx="11.3" cy="26.5" r="1.8" fill="#87a6cd" stroke="#45628b"/><circle cx="14.6" cy="29.2" r="1.8" fill="#cdd8e9" stroke="#828ea4"/><circle cx="15.8" cy="3.4" r="1.8" fill="#94b0d3" stroke="#516b91"/><circle cx="11.4" cy="19.9" r="1.8" fill="#779bc8" stroke="#385987"/><circle cx="14.6" cy="12.7" r="1.8" fill="#8dabd0" stroke="#4b678e"/><circle cx="14.5" cy="25.8" r="1.8" fill="#7498c6" stroke="#365786"/><circle cx="9.2" cy="26.5" r="1.8" fill="#94afd3" stroke="#516b91"/><circle cx="9.9" cy="3.8" r="1.8" fill="#d5dee8" stroke="#8a94a4"/><circle cx="10.4" cy="26.2" r="1.8" fill="#92aed2" stroke="#506a90"/><circle cx="14" cy="28.2" r="1.8" fill="#97b2d4" stroke="#556e92"/><circle cx="15.1" cy="27.1" r="1.8" fill="#80a1cb" stroke="#42608a"/><circle cx="19.6" cy="25.2" r="1.8" fill="#93afd3" stroke="#536d91"/><circle cx="25.2" cy="11.9" r="1.8" fill="#81a2cc" stroke="#44628b"/><circle cx="29.6" cy="17.2" r="1.8" fill="#789bc8" stroke="#3d5c89"/><circle cx="30.7" cy="12.1" r="1.8" fill="#d4dde7" stroke="#8a94a3"/><circle cx="10.7" cy="25.3" r="1.8" fill="#7398c6" stroke="#395a87"/><circle cx="5.8" cy="10" r="1.8" fill="#a2bad9" stroke="#607697"/><circle cx="20.4" cy="3.2" r="1.8" fill="#95b1d3" stroke="#566e92"/><circle cx="19.2" cy="26.6" r="1.8" fill="#bbcce2" stroke="#76859e"/><circle cx="3.6" cy="8.8" r="1.8" fill="#d5dce2" stroke="#8b939e"/><circle cx="4.5" cy="9.9" r="1.8" fill="#becee3" stroke="#7988a0"/><circle cx="8" cy="16.4" r="1.8" fill="#a8bedb" stroke="#677b99"/><circle cx="7.5" cy="22.6" r="1.8" fill="#86a5ce" stroke="#4b678e"/><circle cx="18" cy="8.7" r="1.8" fill="#4b7bb6" stroke="#1b447b"/><circle cx="13.5" cy="4" r="1.8" fill="#83a3cd" stroke="#49658d"/><circle cx="6.4" cy="12.1" r="1.8" fill="#8dabd1" stroke="#526b91"/><circle cx="14.6" cy="4.9" r="1.8" fill="#6d93c4" stroke="#385987"/><circle cx="12.2" cy="4.3" r="1.8" fill="#7197c6" stroke="#3c5c88"/><circle cx="30.9" cy="13.9" r="1.8" fill="#becee4" stroke="#7988a0"/><circle cx="7.2" cy="12.9" r="1.8" fill="#a0b8d8" stroke="#627797"/><circle cx="9.8" cy="24" r="1.8" fill="#7398c6" stroke="#3e5e89"/><circle cx="31.3" cy="17.2" r="1.8" fill="#d7dad4" stroke="#8e9294"/><circle cx="8.4" cy="12.6" r="1.8" fill="#8eacd2" stroke="#546e92"/><circle cx="16.5" cy="25.1" r="1.8" fill="#648dc1" stroke="#335585"/><circle cx="14.2" cy="6.1" r="1.8" fill="#678fc2" stroke="#365786"/><circle cx="22.1" cy="3.6" r="1.8" fill="#779bc8" stroke="#42608b"/><circle cx="11.9" cy="5.5" r="1.8" fill="#7196c6" stroke="#3e5d89"/><circle cx="15.4" cy="7.1" r="1.8" fill="#4979b6" stroke="#1e467d"/><circle cx="24.2" cy="18" r="1.8" fill="#5e89be" stroke="#2f5383"/><circle cx="18.5" cy="5.1" r="1.8" fill="#769ac8" stroke="#42608b"/><circle cx="12.9" cy="6.4" r="1.8" fill="#5a85bc" stroke="#2c5082"/><circle cx="15.3" cy="14.7" r="1.8" fill="#89a8d0" stroke="#516b91"/><circle cx="23.2" cy="4.1" r="1.8" fill="#7b9dca" stroke="#46638c"/><circle cx="9.4" cy="17" r="1.8" fill="#8aa9d0" stroke="#526c91"/><circle cx="31.1" cy="16.2" r="1.8" fill="#c5d4e7" stroke="#818ea3"/><circle cx="8.9" cy="18.3" r="1.8" fill="#83a4cd" stroke="#4d688f"/><circle cx="7.8" cy="15.1" r="1.8" fill="#9eb8d8" stroke="#627897"/><circle cx="9.5" cy="24.8" r="1.8" fill="#6b92c4" stroke="#3a5a88"/><circle cx="19.7" cy="4.1" r="1.8" fill="#81a2cc" stroke="#4b678e"/><circle cx="23.4" cy="5.3" r="1.8" fill="#6f95c5" stroke="#3e5d89"/><circle cx="8.3" cy="7.2" r="1.8" fill="#c8d5e8" stroke="#838fa4"/><circle cx="12.9" cy="10" r="1.8" fill="#4274b4" stroke="#1b447b"/><circle cx="24.4" cy="16.8" r="1.8" fill="#5e89bf" stroke="#315484"/><circle cx="7" cy="10.1" r="1.8" fill="#7498c7" stroke="#42608a"/><circle cx="23.9" cy="13.4" r="1.8" fill="#4174b3" stroke="#1b447b"/><circle cx="12.1" cy="21.6" r="1.8" fill="#638dc1" stroke="#355786"/><circle cx="8.6" cy="21.1" r="1.8" fill="#8eacd2" stroke="#566f93"/><circle cx="5.6" cy="14.2" r="1.8" fill="#d1dbe8" stroke="#8a94a4"/><circle cx="29.2" cy="14.7" r="1.8" fill="#91add2" stroke="#597093"/><circle cx="10.8" cy="22.3" r="1.8" fill="#6890c2" stroke="#395a87"/><circle cx="10.3" cy="10.3" r="1.8" fill="#5885bc" stroke="#2d5182"/><circle cx="20.3" cy="9" r="1.8" fill="#507fba" stroke="#274d80"/><circle cx="10" cy="9" r="1.8" fill="#7499c7" stroke="#43618b"/><circle cx="14.9" cy="24.1" r="1.8" fill="#5481bb" stroke="#2b4f82"/><circle cx="11.1" cy="12.5" r="1.8" fill="#5b86be" stroke="#315384"/><circle cx="9.7" cy="21.3" r="1.8" fill="#7fa1cc" stroke="#4c678f"/><circle cx="25.3" cy="13.5" r="1.8" fill="#4577b5" stroke="#20477d"/><circle cx="31.7" cy="16.1" r="1.8" fill="#cfdbea" stroke="#8994a5"/><circle cx="25" cy="8.6" r="1.8" fill="#5c88be" stroke="#325484"/><circle cx="23.6" cy="8" r="1.8" fill="#5b87be" stroke="#315484"/><circle cx="25.1" cy="3.5" r="1.8" fill="#98b2d5" stroke="#5f7596"/><circle cx="30.6" cy="6.1" r="1.8" fill="#d0dae6" stroke="#8a93a2"/><circle cx="12.6" cy="10.6" r="1.8" fill="#4074b4" stroke="#1d467d"/><circle cx="22.9" cy="12.9" r="1.8" fill="#4678b6" stroke="#22497e"/><circle cx="25.8" cy="14.7" r="1.8" fill="#3d71b2" stroke="#1b447b"/><circle cx="17.5" cy="13.2" r="1.8" fill="#3d71b2" stroke="#1b447b"/><circle cx="9.8" cy="13.1" r="1.8" fill="#7a9dca" stroke="#49658d"/><circle cx="22.6" cy="8.8" r="1.8" fill="#5380ba" stroke="#2b4f82"/><circle cx="11.2" cy="11.1" r="1.8" fill="#5582bb" stroke="#2d5182"/><circle cx="25.8" cy="12.4" r="1.8" fill="#3c70b2" stroke="#1b447b"/><circle cx="20.1" cy="4.3" r="1.8" fill="#7d9fcb" stroke="#4b678e"/><circle cx="29.7" cy="4.9" r="1.8" fill="#ccd9ea" stroke="#8792a5"/><circle cx="21.9" cy="14.9" r="1.8" fill="#5c88bf" stroke="#335685"/><circle cx="19.5" cy="24" r="1.8" fill="#7096c6" stroke="#42608b"/><circle cx="25.7" cy="19.7" r="1.8" fill="#d4d8d4" stroke="#8d9295"/><circle cx="23" cy="22.6" r="1.8" fill="#adc2de" stroke="#70819c"/><circle cx="10.5" cy="8.3" r="1.8" fill="#6d94c5" stroke="#405f8a"/><circle cx="22.7" cy="10" r="1.8" fill="#497ab7" stroke="#254b7f"/><circle cx="24.4" cy="23.2" r="1.8" fill="#d1d9df" stroke="#8b939e"/><circle cx="22" cy="13.7" r="1.8" fill="#4476b5" stroke="#22497e"/><circle cx="27.2" cy="14.8" r="1.8" fill="#4d7db9" stroke="#294e81"/><circle cx="7.9" cy="18" r="1.8" fill="#9db6d8" stroke="#657998"/><circle cx="9.9" cy="20.7" r="1.8" fill="#90add2" stroke="#5b7294"/><circle cx="13.5" cy="10.8" r="1.8" fill="#3b6fb2" stroke="#1c447c"/><circle cx="15.7" cy="11.8" r="1.8" fill="#3b70b2" stroke="#1c457c"/><circle cx="7" cy="20.6" r="1.8" fill="#cedaeb" stroke="#8994a6"/><circle cx="24.9" cy="2.8" r="1.8" fill="#becee5" stroke="#7d8ba2"/><circle cx="25.7" cy="8.2" r="1.8" fill="#648ec2" stroke="#3b5c88"/><circle cx="24.2" cy="1.8" r="1.8" fill="#d0d9e5" stroke="#8a93a2"/><circle cx="26.9" cy="8.8" r="1.8" fill="#6f96c5" stroke="#43618b"/><circle cx="28.2" cy="6.4" r="1.8" fill="#c5d3e7" stroke="#838fa4"/><circle cx="20.8" cy="22.4" r="1.8" fill="#5482bc" stroke="#305384"/><circle cx="22.1" cy="23.1" r="1.8" fill="#81a2cd" stroke="#516b91"/><circle cx="28.8" cy="5.1" r="1.8" fill="#cddaea" stroke="#8994a5"/><circle cx="20.6" cy="8.1" r="1.8" fill="#5683bc" stroke="#325484"/><circle cx="25.1" cy="22.9" r="1.8" fill="#d1d8db" stroke="#8c929a"/><circle cx="14.6" cy="8.2" r="1.8" fill="#366cb0" stroke="#1b447b"/><circle cx="27.8" cy="4" r="1.8" fill="#cedae7" stroke="#8a94a4"/><circle cx="16.9" cy="9.2" r="1.8" fill="#356bb0" stroke="#1b447b"/><circle cx="25.2" cy="7.4" r="1.8" fill="#618bc1" stroke="#3a5a88"/><circle cx="14.1" cy="17" r="1.8" fill="#4678b6" stroke="#274d80"/><circle cx="15.5" cy="12.5" r="1.8" fill="#3f72b3" stroke="#22497e"/><circle cx="13.8" cy="15.6" r="1.8" fill="#4f7eb9" stroke="#2d5182"/><circle cx="15.4" cy="9.4" r="1.8" fill="#356baf" stroke="#1b447b"/><circle cx="18.7" cy="15.9" r="1.8" fill="#4677b7" stroke="#274d80"/><circle cx="18.8" cy="17.1" r="1.8" fill="#4073b4" stroke="#23497e"/><circle cx="26.6" cy="4.3" r="1.8" fill="#ced9e8" stroke="#8a94a4"/><circle cx="12.5" cy="15.2" r="1.8" fill="#4c7bb8" stroke="#2c5082"/><circle cx="11.8" cy="17.5" r="1.8" fill="#4b7bb8" stroke="#2b5082"/><circle cx="11.5" cy="16.2" r="1.8" fill="#4d7db9" stroke="#2d5182"/><circle cx="25.5" cy="3.4" r="1.8" fill="#c8d6e9" stroke="#8691a5"/><circle cx="28.6" cy="15.9" r="1.8" fill="#6b92c4" stroke="#43618b"/><circle cx="17.8" cy="18" r="1.8" fill="#4c7cb9" stroke="#2d5182"/><circle cx="22.6" cy="19.5" r="1.8" fill="#95b1d5" stroke="#617797"/><circle cx="27.6" cy="8.5" r="1.8" fill="#98b3d6" stroke="#637898"/><circle cx="28.3" cy="7.2" r="1.8" fill="#b9cbe3" stroke="#7b8aa1"/><circle cx="21.3" cy="7.2" r="1.8" fill="#799cca" stroke="#4d688f"/><circle cx="18.9" cy="20.8" r="1.8" fill="#4779b7" stroke="#2a4f81"/><circle cx="20" cy="22.8" r="1.8" fill="#618bc1" stroke="#3c5c88"/><circle cx="16.4" cy="17.5" r="1.8" fill="#356bb0" stroke="#1d467d"/><circle cx="28.6" cy="9.7" r="1.8" fill="#b2c6e0" stroke="#76869f"/><circle cx="22.5" cy="18" r="1.8" fill="#6f95c7" stroke="#47638d"/><circle cx="26.2" cy="15.3" r="1.8" fill="#5c88bf" stroke="#3a5a88"/><circle cx="21.3" cy="13.4" r="1.8" fill="#3d71b3" stroke="#244a7e"/><circle cx="21.1" cy="17.5" r="1.8" fill="#497ab8" stroke="#2d5182"/><circle cx="28" cy="11" r="1.8" fill="#c8d6ea" stroke="#8692a5"/><circle cx="16.9" cy="22.9" r="1.8" fill="#6790c3" stroke="#43618b"/><circle cx="28.8" cy="6.7" r="1.8" fill="#b4c7e1" stroke="#7988a0"/><circle cx="29.1" cy="12" r="1.8" fill="#cbd8e9" stroke="#8994a5"/><circle cx="14.6" cy="23.7" r="1.8" fill="#acc2de" stroke="#74849e"/><circle cx="20.5" cy="12.7" r="1.8" fill="#6890c4" stroke="#44618b"/><circle cx="20.5" cy="7.2" r="1.8" fill="#99b4d7" stroke="#677a98"/><circle cx="13.5" cy="22.7" r="1.8" fill="#ced7e0" stroke="#8b939f"/><circle cx="26.9" cy="10.9" r="1.8" fill="#c4d3e8" stroke="#8490a4"/><circle cx="18.2" cy="22.4" r="1.8" fill="#5b87bf" stroke="#3c5c88"/><circle cx="19.2" cy="13" r="1.8" fill="#86a6d0" stroke="#5a7194"/><circle cx="20.8" cy="11.5" r="1.8" fill="#90add4" stroke="#617697"/><circle cx="20.5" cy="18" r="1.8" fill="#4b7bb9" stroke="#315484"/><circle cx="15.8" cy="23.4" r="1.8" fill="#93b0d5" stroke="#637898"/><circle cx="15.5" cy="17.6" r="1.8" fill="#4073b5" stroke="#2b4f82"/><circle cx="21" cy="6.3" r="1.8" fill="#c6d5e8" stroke="#8692a5"/><circle cx="17.9" cy="21.3" r="1.8" fill="#6a92c5" stroke="#48658d"/><circle cx="18.8" cy="12" r="1.8" fill="#aac0de" stroke="#74849e"/><circle cx="19.8" cy="11" r="1.8" fill="#99b4d7" stroke="#687b99"/><circle cx="13.5" cy="18.7" r="1.8" fill="#5885be" stroke="#3d5d89"/><circle cx="14.8" cy="18.2" r="1.8" fill="#4275b5" stroke="#2f5383"/><circle cx="20.2" cy="6.5" r="1.8" fill="#cdd5d9" stroke="#8c929b"/><circle cx="18.3" cy="21.2" r="1.8" fill="#6e95c7" stroke="#4d688f"/><circle cx="15.7" cy="19.4" r="1.8" fill="#5583be" stroke="#3d5d89"/><circle cx="17" cy="19.1" r="1.8" fill="#5885be" stroke="#405e8a"/><circle cx="15.2" cy="20.5" r="1.8" fill="#6d93c6" stroke="#4d688f"/><circle cx="19" cy="22.1" r="1.8" fill="#8daad3" stroke="#627797"/><circle cx="18.1" cy="19.9" r="1.8" fill="#7298c9" stroke="#516b91"/><g class="flex"><circle cx="38.2" cy="22.7" r="1.8" fill="#f6d673" stroke="#a6882d"/><circle cx="36.5" cy="21.5" r="1.8" fill="#f6d56f" stroke="#a6882d"/><circle cx="32.6" cy="22.4" r="1.8" fill="#f6d46c" stroke="#a6882d"/><circle cx="32.6" cy="20.2" r="1.8" fill="#f6d46c" stroke="#a6882d"/><circle cx="37.4" cy="23.4" r="1.8" fill="#f6d46b" stroke="#a6882d"/><circle cx="22.4" cy="23.9" r="1.8" fill="#e4dbb9" stroke="#958f76"/><circle cx="13.1" cy="29.6" r="1.8" fill="#dfdcc7" stroke="#919084"/><circle cx="15.1" cy="30.6" r="1.8" fill="#e4dab3" stroke="#958e73"/><circle cx="36.6" cy="23.2" r="1.8" fill="#f6d367" stroke="#a6882d"/><circle cx="37.3" cy="21" r="1.8" fill="#f6d263" stroke="#a6882d"/><circle cx="37.5" cy="22.5" r="1.8" fill="#f6d263" stroke="#a6882d"/><circle cx="39.7" cy="19.4" r="1.8" fill="#f6d162" stroke="#a6882d"/><circle cx="37.7" cy="20.3" r="1.8" fill="#f5d05e" stroke="#a6882d"/><circle cx="39.2" cy="19.9" r="1.8" fill="#f5d05e" stroke="#a6882d"/><circle cx="20.2" cy="30.1" r="1.8" fill="#f1d16e" stroke="#a2893d"/><circle cx="34.4" cy="14.8" r="1.8" fill="#ebd387" stroke="#9d8b52"/><circle cx="19.9" cy="29" r="1.8" fill="#ecd383" stroke="#9e8b4f"/><circle cx="28" cy="21.6" r="1.8" fill="#f5cf59" stroke="#a6882d"/><circle cx="39.7" cy="20" r="1.8" fill="#f5cf59" stroke="#a6882d"/><circle cx="6.3" cy="5.9" r="1.8" fill="#f2d067" stroke="#a38939"/><circle cx="35.5" cy="17.5" r="1.8" fill="#edd279" stroke="#9f8a48"/><circle cx="2.1" cy="8.9" r="1.8" fill="#ddd9c1" stroke="#919084"/><circle cx="41.2" cy="19.7" r="1.8" fill="#f5cf58" stroke="#a6882d"/><circle cx="36.4" cy="13.7" r="1.8" fill="#e9d389" stroke="#9c8c56"/><circle cx="36.3" cy="16.2" r="1.8" fill="#edd27b" stroke="#9f8a4a"/><circle cx="30.2" cy="21.1" r="1.8" fill="#f5cf58" stroke="#a6882d"/><circle cx="29.2" cy="22" r="1.8" fill="#f5cf58" stroke="#a6882d"/><circle cx="31.6" cy="21.7" r="1.8" fill="#f5ce57" stroke="#a6882d"/><circle cx="29.4" cy="23.2" r="1.8" fill="#f5ce56" stroke="#a6882d"/><circle cx="33.4" cy="18.2" r="1.8" fill="#e6d495" stroke="#998d61"/><circle cx="20" cy="28.7" r="1.8" fill="#f4cf5c" stroke="#a48832"/><circle cx="40.9" cy="17.5" r="1.8" fill="#f5ce55" stroke="#a6882d"/><circle cx="32.4" cy="20.6" r="1.8" fill="#efd06b" stroke="#a18a3f"/><circle cx="36.5" cy="19.4" r="1.8" fill="#f1cf67" stroke="#a2893c"/><circle cx="34.5" cy="17.6" r="1.8" fill="#e9d388" stroke="#9c8c57"/><circle cx="41.4" cy="18.6" r="1.8" fill="#f5ce55" stroke="#a6882d"/><circle cx="6.6" cy="6" r="1.8" fill="#e9d287" stroke="#9c8c56"/><circle cx="8" cy="6.2" r="1.8" fill="#ddd7b9" stroke="#93907e"/><circle cx="1.8" cy="8.6" r="1.8" fill="#e2d6a6" stroke="#968e6f"/><circle cx="31.6" cy="19.6" r="1.8" fill="#e8d38c" stroke="#9b8c5b"/><circle cx="32.3" cy="18.2" r="1.8" fill="#e1d5a7" stroke="#968e70"/><circle cx="42.2" cy="19" r="1.8" fill="#f5cd51" stroke="#a6882d"/><circle cx="5.8" cy="5.9" r="1.8" fill="#efcf69" stroke="#a18a40"/><circle cx="4.6" cy="15.4" r="1.8" fill="#e1d39f" stroke="#978e6c"/><circle cx="42.6" cy="18.1" r="1.8" fill="#f5cc4d" stroke="#a6882d"/><circle cx="24.8" cy="23.9" r="1.8" fill="#dad7bf" stroke="#919085"/><circle cx="3" cy="13.6" r="1.8" fill="#f1cd5a" stroke="#a38938"/><circle cx="44.3" cy="19.8" r="1.8" fill="#f5cb4b" stroke="#a6882d"/><circle cx="3.4" cy="14.9" r="1.8" fill="#ecce70" stroke="#9f8a49"/><circle cx="4.8" cy="19.8" r="1.8" fill="#dbd5b6" stroke="#92907e"/><circle cx="2.7" cy="15.6" r="1.8" fill="#f3cb50" stroke="#a48834"/><circle cx="5.6" cy="20" r="1.8" fill="#d7d6c5" stroke="#90918a"/><circle cx="28.1" cy="2.8" r="1.8" fill="#d8d5bf" stroke="#919086"/><circle cx="43.2" cy="18.8" r="1.8" fill="#f5c944" stroke="#a6882d"/><circle cx="5.2" cy="19.7" r="1.8" fill="#ded2a4" stroke="#958e73"/><circle cx="26.2" cy="20.7" r="1.8" fill="#f0ca55" stroke="#a2893c"/><circle cx="26.4" cy="20" r="1.8" fill="#f4c73d" stroke="#a6882d"/><circle cx="27.2" cy="18.9" r="1.8" fill="#f4c73c" stroke="#a6882d"/><circle cx="25.7" cy="20.3" r="1.8" fill="#f4c639" stroke="#a6882d"/><circle cx="13.2" cy="22.9" r="1.8" fill="#d7d1b1" stroke="#929080"/></g></svg>